<svg width="149" height="48" viewBox="0 0 149 48" fill="none" xmlns="http://www.w3.org/2000/svg">
<g clip-path="url(#clip0_2_2)">
<mask id="mask0_2_2" style="mask-type:luminance" maskUnits="userSpaceOnUse" x="0" y="4" width="149" height="39">
<path d="M0 4.994H149V42.626H0V4.994Z" fill="white"/>
</mask>
<g mask="url(#mask0_2_2)">
<path d="M67.9827 6.09983H80.4101V40.9938H67.9827V6.09983ZM0 16.5118H8.93401V40.9938H20.9539V16.5118H29.8879V6.09983H0V16.5118ZM53.4902 6.09983L46.0502 29.2498C46.0029 29.3935 45.906 29.5155 45.7769 29.5941C45.6478 29.6727 45.495 29.7026 45.3459 29.6785C45.1967 29.6544 45.0611 29.5779 44.9632 29.4627C44.8653 29.3475 44.8117 29.2011 44.8119 29.0498V6.09983H32.9937V40.9938H54.6866L66.4668 6.09983H53.4902ZM104.911 6.09983V20.6798C104.909 20.8212 104.859 20.9576 104.77 21.0676C104.682 21.1776 104.559 21.2549 104.421 21.2872C104.284 21.3196 104.14 21.3051 104.011 21.2462C103.883 21.1873 103.778 21.0872 103.713 20.9618L96.3606 6.09983H84.6164V40.9938H96.0371V26.4958C96.0397 26.3545 96.0893 26.218 96.1779 26.108C96.2666 25.998 96.3894 25.9208 96.5268 25.8884C96.6643 25.8561 96.8085 25.8705 96.9369 25.9294C97.0652 25.9884 97.1703 26.0884 97.2355 26.2138L104.552 40.9938H116.296V6.09983H104.911ZM130.838 27.0658V19.4438C130.732 18.5956 130.939 17.7378 131.421 17.0319C131.902 16.326 132.625 15.821 133.453 15.6118C133.927 15.5031 134.419 15.4894 134.899 15.5714C135.378 15.6535 135.837 15.8296 136.249 16.0898C136.661 16.35 137.017 16.6891 137.297 17.0876C137.578 17.4861 137.777 17.9361 137.883 18.4118L148.812 12.5518C144.504 4.69583 136.445 4.79383 133.221 5.08583C129.666 5.30309 126.274 6.6544 123.542 8.94183C122.058 10.3753 120.897 12.1109 120.139 14.0316C119.381 15.9522 119.043 18.0133 119.148 20.0758V26.9478C119.148 33.4958 121.727 37.8658 126.183 40.4178C133.864 44.8178 144.646 41.8178 149.006 38.4958V21.7478H137.713V32.1938C136.115 32.8158 130.838 33.5298 130.838 27.0558" fill="#FF153C"/>
</g>
</g>
<defs>
<clipPath id="clip0_2_2">
<rect width="149" height="48" fill="white"/>
</clipPath>
</defs>
</svg>
